{
	"asset":{
		"generator":"Khronos glTF Blender I/O v4.5.48",
		"version":"2.0"
	},
	"scene":0,
	"scenes":[
		{
			"name":"Scene",
			"nodes":[
				0,
				1,
				2,
				3,
				4,
				5
			]
		}
	],
	"nodes":[
		{
			"mesh":0,
			"name":"_(Loose Entity)"
		},
		{
			"mesh":1,
			"name":"C-bongden",
			"rotation":[
				0,
				0,
				-1,
				4.371138828673793e-08
			],
			"translation":[
				26.58005714416504,
				4.001100063323975,
				-19.8240966796875
			]
		},
		{
			"mesh":1,
			"name":"C-bongden.001",
			"rotation":[
				0,
				0,
				-1,
				4.371138828673793e-08
			],
			"translation":[
				26.58005714416504,
				4.001100063323975,
				-20.68449592590332
			]
		},
		{
			"mesh":1,
			"name":"C-bongden.002",
			"rotation":[
				0,
				0,
				-1,
				4.371138828673793e-08
			],
			"translation":[
				26.58005714416504,
				4.001100063323975,
				-18.820796966552734
			]
		},
		{
			"mesh":1,
			"name":"C-bongden.003",
			"rotation":[
				0,
				0,
				-1,
				4.371138828673793e-08
			],
			"translation":[
				26.58005714416504,
				4.001100063323975,
				-21.957096099853516
			]
		},
		{
			"mesh":2,
			"name":"C-people",
			"rotation":[
				0,
				0.7071067094802856,
				0,
				0.7071068286895752
			],
			"translation":[
				31.454389572143555,
				-0.04986131191253662,
				-6.102177619934082
			]
		}
	],
	"materials":[
		{
			"alphaMode":"BLEND",
			"doubleSided":true,
			"name":"north_lang_bac_ho_front",
			"pbrMetallicRoughness":{
				"baseColorTexture":{
					"index":0
				},
				"metallicFactor":0,
				"roughnessFactor":0.5
			}
		},
		{
			"doubleSided":true,
			"name":"Material",
			"pbrMetallicRoughness":{
				"baseColorFactor":[
					0.800000011920929,
					0.800000011920929,
					0.800000011920929,
					1
				],
				"metallicFactor":0,
				"roughnessFactor":0.5
			}
		},
		{
			"alphaMode":"BLEND",
			"doubleSided":true,
			"name":"[Brick_Pavers_Herringbone]",
			"pbrMetallicRoughness":{
				"baseColorTexture":{
					"index":1
				},
				"metallicFactor":0,
				"roughnessFactor":0.5
			}
		},
		{
			"alphaMode":"BLEND",
			"doubleSided":true,
			"name":"[Stone_Vein_Gray]",
			"pbrMetallicRoughness":{
				"baseColorTexture":{
					"index":2
				},
				"metallicFactor":0,
				"roughnessFactor":0.5
			}
		},
		{
			"doubleSided":true,
			"name":"[Burnt Sienna]",
			"pbrMetallicRoughness":{
				"baseColorFactor":[
					0.2590273320674896,
					0.07805658876895905,
					0.0697270855307579,
					1
				],
				"metallicFactor":0,
				"roughnessFactor":0.5
			}
		},
		{
			"alphaMode":"BLEND",
			"doubleSided":true,
			"name":"lang bac",
			"pbrMetallicRoughness":{
				"baseColorTexture":{
					"index":3
				},
				"metallicFactor":0,
				"roughnessFactor":0.5
			}
		},
		{
			"alphaMode":"BLEND",
			"doubleSided":true,
			"name":"[Wood_Lumber_ButtJoined]",
			"pbrMetallicRoughness":{
				"baseColorTexture":{
					"index":4
				},
				"metallicFactor":0,
				"roughnessFactor":0.5
			}
		},
		{
			"alphaMode":"BLEND",
			"doubleSided":true,
			"name":"[Wood_Floor_Parquet]",
			"pbrMetallicRoughness":{
				"baseColorTexture":{
					"index":5
				},
				"metallicFactor":0,
				"roughnessFactor":0.5
			}
		},
		{
			"alphaMode":"BLEND",
			"doubleSided":true,
			"name":"[Wood_Floor_Dark]",
			"pbrMetallicRoughness":{
				"baseColorTexture":{
					"index":6
				},
				"metallicFactor":0,
				"roughnessFactor":0.5
			}
		},
		{
			"alphaMode":"BLEND",
			"doubleSided":true,
			"name":"[Wood_ Floor]",
			"pbrMetallicRoughness":{
				"baseColorTexture":{
					"index":7
				},
				"metallicFactor":0,
				"roughnessFactor":0.5
			}
		},
		{
			"alphaMode":"BLEND",
			"doubleSided":true,
			"name":"[Translucent_Glass_Corrugated]",
			"pbrMetallicRoughness":{
				"baseColorTexture":{
					"index":8
				},
				"metallicFactor":0,
				"roughnessFactor":0.5
			}
		},
		{
			"alphaMode":"BLEND",
			"doubleSided":true,
			"name":"[Wood_Floor_Light]",
			"pbrMetallicRoughness":{
				"baseColorTexture":{
					"index":9
				},
				"metallicFactor":0,
				"roughnessFactor":0.5
			}
		},
		{
			"alphaMode":"BLEND",
			"doubleSided":true,
			"name":"[Carpet_Pattern_Squares_Multi]",
			"pbrMetallicRoughness":{
				"baseColorTexture":{
					"index":10
				},
				"metallicFactor":0,
				"roughnessFactor":0.5
			}
		},
		{
			"alphaMode":"BLEND",
			"doubleSided":true,
			"name":"[Wood_Bamboo_Medium]",
			"pbrMetallicRoughness":{
				"baseColorTexture":{
					"index":11
				},
				"metallicFactor":0,
				"roughnessFactor":0.5
			}
		},
		{
			"alphaMode":"BLEND",
			"doubleSided":true,
			"name":"SHOW ME THE MACS 4",
			"pbrMetallicRoughness":{
				"baseColorTexture":{
					"index":12
				},
				"metallicFactor":0,
				"roughnessFactor":0.5
			}
		}
	],
	"meshes":[
		{
			"name":"_(Loose Entity)",
			"primitives":[
				{
					"attributes":{
						"POSITION":0,
						"NORMAL":1,
						"TEXCOORD_0":2
					},
					"indices":3,
					"material":0
				},
				{
					"attributes":{
						"POSITION":4,
						"NORMAL":5,
						"TEXCOORD_0":6
					},
					"indices":7,
					"material":1
				},
				{
					"attributes":{
						"POSITION":8,
						"NORMAL":9,
						"TEXCOORD_0":10
					},
					"indices":11,
					"material":2
				},
				{
					"attributes":{
						"POSITION":12,
						"NORMAL":13,
						"TEXCOORD_0":14
					},
					"indices":15,
					"material":3
				},
				{
					"attributes":{
						"POSITION":16,
						"NORMAL":17,
						"TEXCOORD_0":18
					},
					"indices":19,
					"material":4
				},
				{
					"attributes":{
						"POSITION":20,
						"NORMAL":21,
						"TEXCOORD_0":22
					},
					"indices":23,
					"material":5
				},
				{
					"attributes":{
						"POSITION":24,
						"NORMAL":25,
						"TEXCOORD_0":26
					},
					"indices":27,
					"material":6
				},
				{
					"attributes":{
						"POSITION":28,
						"NORMAL":29,
						"TEXCOORD_0":30
					},
					"indices":31,
					"material":7
				},
				{
					"attributes":{
						"POSITION":32,
						"NORMAL":33,
						"TEXCOORD_0":34
					},
					"indices":35,
					"material":8
				},
				{
					"attributes":{
						"POSITION":36,
						"NORMAL":37,
						"TEXCOORD_0":38
					},
					"indices":39,
					"material":9
				},
				{
					"attributes":{
						"POSITION":40,
						"NORMAL":41,
						"TEXCOORD_0":42
					},
					"indices":43,
					"material":10
				},
				{
					"attributes":{
						"POSITION":44,
						"NORMAL":45,
						"TEXCOORD_0":46
					},
					"indices":47,
					"material":11
				},
				{
					"attributes":{
						"POSITION":48,
						"NORMAL":49,
						"TEXCOORD_0":50
					},
					"indices":51,
					"material":12
				},
				{
					"attributes":{
						"POSITION":52,
						"NORMAL":53,
						"TEXCOORD_0":54
					},
					"indices":55,
					"material":13
				}
			]
		},
		{
			"name":"C-bongden",
			"primitives":[
				{
					"attributes":{
						"POSITION":56,
						"NORMAL":57
					},
					"indices":58,
					"material":1
				}
			]
		},
		{
			"name":"C-people",
			"primitives":[
				{
					"attributes":{
						"POSITION":59,
						"NORMAL":60,
						"TEXCOORD_0":61
					},
					"indices":62,
					"material":14
				}
			]
		}
	],
	"textures":[
		{
			"sampler":0,
			"source":0
		},
		{
			"sampler":0,
			"source":1
		},
		{
			"sampler":0,
			"source":2
		},
		{
			"sampler":0,
			"source":3
		},
		{
			"sampler":0,
			"source":4
		},
		{
			"sampler":0,
			"source":5
		},
		{
			"sampler":0,
			"source":6
		},
		{
			"sampler":0,
			"source":7
		},
		{
			"sampler":0,
			"source":8
		},
		{
			"sampler":0,
			"source":9
		},
		{
			"sampler":0,
			"source":10
		},
		{
			"sampler":0,
			"source":11
		},
		{
			"sampler":0,
			"source":12
		}
	],
	"images":[
		{
			"mimeType":"image/png",
			"name":"north_lang_bac_ho_front",
			"uri":"north_lang_bac_ho_front.png"
		},
		{
			"mimeType":"image/png",
			"name":"Brick_Pavers_Herringbone",
			"uri":"Brick_Pavers_Herringbone.png"
		},
		{
			"mimeType":"image/png",
			"name":"Stone_Vein_Gray",
			"uri":"Stone_Vein_Gray.png"
		},
		{
			"mimeType":"image/png",
			"name":"lang bac",
			"uri":"lang%20bac.png"
		},
		{
			"mimeType":"image/png",
			"name":"Wood_Lumber_ButtJoined",
			"uri":"Wood_Lumber_ButtJoined.png"
		},
		{
			"mimeType":"image/png",
			"name":"Wood_Floor_Parquet",
			"uri":"Wood_Floor_Parquet.png"
		},
		{
			"mimeType":"image/png",
			"name":"Wood_Floor_Dark",
			"uri":"Wood_Floor_Dark.png"
		},
		{
			"mimeType":"image/png",
			"name":"Wood_Floor",
			"uri":"Wood_Floor.png"
		},
		{
			"mimeType":"image/png",
			"name":"Translucent_Glass_Corrugated",
			"uri":"Translucent_Glass_Corrugated.png"
		},
		{
			"mimeType":"image/png",
			"name":"Wood_Floor_Light",
			"uri":"Wood_Floor_Light.png"
		},
		{
			"mimeType":"image/png",
			"name":"Carpet_Pattern_Squares_Multi",
			"uri":"Carpet_Pattern_Squares_Multi.png"
		},
		{
			"mimeType":"image/png",
			"name":"Wood_Bamboo_Medium",
			"uri":"Wood_Bamboo_Medium.png"
		},
		{
			"mimeType":"image/png",
			"name":"SHOW ME THE MACS 4",
			"uri":"SHOW%20ME%20THE%20MACS%204.png"
		}
	],
	"accessors":[
		{
			"bufferView":0,
			"componentType":5126,
			"count":86,
			"max":[
				26.745389938354492,
				18.63129997253418,
				-6.941604137420654
			],
			"min":[
				0.005290583707392216,
				-0.576200008392334,
				-34.219303131103516
			],
			"type":"VEC3"
		},
		{
			"bufferView":1,
			"componentType":5126,
			"count":86,
			"type":"VEC3"
		},
		{
			"bufferView":2,
			"componentType":5126,
			"count":86,
			"type":"VEC2"
		},
		{
			"bufferView":3,
			"componentType":5123,
			"count":150,
			"type":"SCALAR"
		},
		{
			"bufferView":4,
			"componentType":5126,
			"count":1060,
			"max":[
				35.29439163208008,
				22.199199676513672,
				-6.941604137420654
			],
			"min":[
				-2.121809482574463,
				-0.576200008392334,
				-34.219303131103516
			],
			"type":"VEC3"
		},
		{
			"bufferView":5,
			"componentType":5126,
			"count":1060,
			"type":"VEC3"
		},
		{
			"bufferView":6,
			"componentType":5126,
			"count":1060,
			"type":"VEC2"
		},
		{
			"bufferView":7,
			"componentType":5123,
			"count":1779,
			"type":"SCALAR"
		},
		{
			"bufferView":8,
			"componentType":5126,
			"count":16,
			"max":[
				17.43543243408203,
				15.844099998474121,
				-15.90206241607666
			],
			"min":[
				9.640949249267578,
				8.484399795532227,
				-24.868545532226562
			],
			"type":"VEC3"
		},
		{
			"bufferView":9,
			"componentType":5126,
			"count":16,
			"type":"VEC3"
		},
		{
			"bufferView":10,
			"componentType":5126,
			"count":16,
			"type":"VEC2"
		},
		{
			"bufferView":11,
			"componentType":5123,
			"count":24,
			"type":"SCALAR"
		},
		{
			"bufferView":12,
			"componentType":5126,
			"count":488,
			"max":[
				26.745389938354492,
				19.192899703979492,
				-6.941604137420654
			],
			"min":[
				0.005290583707392216,
				0,
				-34.219303131103516
			],
			"type":"VEC3"
		},
		{
			"bufferView":13,
			"componentType":5126,
			"count":488,
			"type":"VEC3"
		},
		{
			"bufferView":14,
			"componentType":5126,
			"count":488,
			"type":"VEC2"
		},
		{
			"bufferView":15,
			"componentType":5123,
			"count":969,
			"type":"SCALAR"
		},
		{
			"bufferView":16,
			"componentType":5126,
			"count":396,
			"max":[
				13.657759666442871,
				22.199199676513672,
				-20.435834884643555
			],
			"min":[
				13.493321418762207,
				19.192899703979492,
				-20.60027313232422
			],
			"type":"VEC3"
		},
		{
			"bufferView":17,
			"componentType":5126,
			"count":396,
			"type":"VEC3"
		},
		{
			"bufferView":18,
			"componentType":5126,
			"count":396,
			"type":"VEC2"
		},
		{
			"bufferView":19,
			"componentType":5123,
			"count":612,
			"type":"SCALAR"
		},
		{
			"bufferView":20,
			"componentType":5126,
			"count":32,
			"max":[
				26.745389938354492,
				8.484399795532227,
				-6.941604137420654
			],
			"min":[
				6.257518768310547,
				-0.576200008392334,
				-34.219303131103516
			],
			"type":"VEC3"
		},
		{
			"bufferView":21,
			"componentType":5126,
			"count":32,
			"type":"VEC3"
		},
		{
			"bufferView":22,
			"componentType":5126,
			"count":32,
			"type":"VEC2"
		},
		{
			"bufferView":23,
			"componentType":5123,
			"count":78,
			"type":"SCALAR"
		},
		{
			"bufferView":24,
			"componentType":5126,
			"count":24,
			"max":[
				25.983190536499023,
				4.001100063323975,
				-17.940475463867188
			],
			"min":[
				25.337989807128906,
				0,
				-23.212806701660156
			],
			"type":"VEC3"
		},
		{
			"bufferView":25,
			"componentType":5126,
			"count":24,
			"type":"VEC3"
		},
		{
			"bufferView":26,
			"componentType":5126,
			"count":24,
			"type":"VEC2"
		},
		{
			"bufferView":27,
			"componentType":5123,
			"count":60,
			"type":"SCALAR"
		},
		{
			"bufferView":28,
			"componentType":5126,
			"count":65,
			"max":[
				25.298690795898438,
				3.0337531566619873,
				-19.652498245239258
			],
			"min":[
				1.9621906280517578,
				0.02862345613539219,
				-21.497631072998047
			],
			"type":"VEC3"
		},
		{
			"bufferView":29,
			"componentType":5126,
			"count":65,
			"type":"VEC3"
		},
		{
			"bufferView":30,
			"componentType":5126,
			"count":65,
			"type":"VEC2"
		},
		{
			"bufferView":31,
			"componentType":5123,
			"count":156,
			"type":"SCALAR"
		},
		{
			"bufferView":32,
			"componentType":5126,
			"count":8,
			"max":[
				25.32139015197754,
				0.4253106117248535,
				-19.720491409301758
			],
			"min":[
				25.32139015197754,
				0.09741061180830002,
				-21.3907470703125
			],
			"type":"VEC3"
		},
		{
			"bufferView":33,
			"componentType":5126,
			"count":8,
			"type":"VEC3"
		},
		{
			"bufferView":34,
			"componentType":5126,
			"count":8,
			"type":"VEC2"
		},
		{
			"bufferView":35,
			"componentType":5123,
			"count":12,
			"type":"SCALAR"
		},
		{
			"bufferView":36,
			"componentType":5126,
			"count":8,
			"max":[
				26.35519027709961,
				4.001100063323975,
				-17.005992889404297
			],
			"min":[
				26.35519027709961,
				0,
				-24.252775192260742
			],
			"type":"VEC3"
		},
		{
			"bufferView":37,
			"componentType":5126,
			"count":8,
			"type":"VEC3"
		},
		{
			"bufferView":38,
			"componentType":5126,
			"count":8,
			"type":"VEC2"
		},
		{
			"bufferView":39,
			"componentType":5123,
			"count":12,
			"type":"SCALAR"
		},
		{
			"bufferView":40,
			"componentType":5126,
			"count":129,
			"max":[
				26.745389938354492,
				4.001100063323975,
				-17.005992889404297
			],
			"min":[
				25.62948989868164,
				4.001100063323975,
				-24.252775192260742
			],
			"type":"VEC3"
		},
		{
			"bufferView":41,
			"componentType":5126,
			"count":129,
			"type":"VEC3"
		},
		{
			"bufferView":42,
			"componentType":5126,
			"count":129,
			"type":"VEC2"
		},
		{
			"bufferView":43,
			"componentType":5123,
			"count":342,
			"type":"SCALAR"
		},
		{
			"bufferView":44,
			"componentType":5126,
			"count":29,
			"max":[
				25.62948989868164,
				4.001100063323975,
				-16.801156997680664
			],
			"min":[
				0.005290583707392216,
				-0.08171685039997101,
				-24.73325538635254
			],
			"type":"VEC3"
		},
		{
			"bufferView":45,
			"componentType":5126,
			"count":29,
			"type":"VEC3"
		},
		{
			"bufferView":46,
			"componentType":5126,
			"count":29,
			"type":"VEC2"
		},
		{
			"bufferView":47,
			"componentType":5123,
			"count":57,
			"type":"SCALAR"
		},
		{
			"bufferView":48,
			"componentType":5126,
			"count":78,
			"max":[
				35.29439163208008,
				0,
				-8.91195297241211
			],
			"min":[
				-2.121809482574463,
				-0.43140000104904175,
				-31.543773651123047
			],
			"type":"VEC3"
		},
		{
			"bufferView":49,
			"componentType":5126,
			"count":78,
			"type":"VEC3"
		},
		{
			"bufferView":50,
			"componentType":5126,
			"count":78,
			"type":"VEC2"
		},
		{
			"bufferView":51,
			"componentType":5123,
			"count":174,
			"type":"SCALAR"
		},
		{
			"bufferView":52,
			"componentType":5126,
			"count":14,
			"max":[
				1.9621906280517578,
				1.8208831548690796,
				-19.966726303100586
			],
			"min":[
				1.9621906280517578,
				-0.08171685039997101,
				-21.620426177978516
			],
			"type":"VEC3"
		},
		{
			"bufferView":53,
			"componentType":5126,
			"count":14,
			"type":"VEC3"
		},
		{
			"bufferView":54,
			"componentType":5126,
			"count":14,
			"type":"VEC2"
		},
		{
			"bufferView":55,
			"componentType":5123,
			"count":48,
			"type":"SCALAR"
		},
		{
			"bufferView":56,
			"componentType":5126,
			"count":168,
			"max":[
				0.36815646290779114,
				0.08089999854564667,
				0
			],
			"min":[
				0,
				0,
				-0.36815646290779114
			],
			"type":"VEC3"
		},
		{
			"bufferView":57,
			"componentType":5126,
			"count":168,
			"type":"VEC3"
		},
		{
			"bufferView":58,
			"componentType":5123,
			"count":498,
			"type":"SCALAR"
		},
		{
			"bufferView":59,
			"componentType":5126,
			"count":505,
			"max":[
				8.704720497131348,
				2.085906744003296,
				-0.000506936339661479
			],
			"min":[
				4.805146217346191,
				-0.04551093652844429,
				-0.000506936339661479
			],
			"type":"VEC3"
		},
		{
			"bufferView":60,
			"componentType":5126,
			"count":505,
			"type":"VEC3"
		},
		{
			"bufferView":61,
			"componentType":5126,
			"count":505,
			"type":"VEC2"
		},
		{
			"bufferView":62,
			"componentType":5123,
			"count":1479,
			"type":"SCALAR"
		}
	],
	"bufferViews":[
		{
			"buffer":0,
			"byteLength":1032,
			"byteOffset":0,
			"target":34962
		},
		{
			"buffer":0,
			"byteLength":1032,
			"byteOffset":1032,
			"target":34962
		},
		{
			"buffer":0,
			"byteLength":688,
			"byteOffset":2064,
			"target":34962
		},
		{
			"buffer":0,
			"byteLength":300,
			"byteOffset":2752,
			"target":34963
		},
		{
			"buffer":0,
			"byteLength":12720,
			"byteOffset":3052,
			"target":34962
		},
		{
			"buffer":0,
			"byteLength":12720,
			"byteOffset":15772,
			"target":34962
		},
		{
			"buffer":0,
			"byteLength":8480,
			"byteOffset":28492,
			"target":34962
		},
		{
			"buffer":0,
			"byteLength":3558,
			"byteOffset":36972,
			"target":34963
		},
		{
			"buffer":0,
			"byteLength":192,
			"byteOffset":40532,
			"target":34962
		},
		{
			"buffer":0,
			"byteLength":192,
			"byteOffset":40724,
			"target":34962
		},
		{
			"buffer":0,
			"byteLength":128,
			"byteOffset":40916,
			"target":34962
		},
		{
			"buffer":0,
			"byteLength":48,
			"byteOffset":41044,
			"target":34963
		},
		{
			"buffer":0,
			"byteLength":5856,
			"byteOffset":41092,
			"target":34962
		},
		{
			"buffer":0,
			"byteLength":5856,
			"byteOffset":46948,
			"target":34962
		},
		{
			"buffer":0,
			"byteLength":3904,
			"byteOffset":52804,
			"target":34962
		},
		{
			"buffer":0,
			"byteLength":1938,
			"byteOffset":56708,
			"target":34963
		},
		{
			"buffer":0,
			"byteLength":4752,
			"byteOffset":58648,
			"target":34962
		},
		{
			"buffer":0,
			"byteLength":4752,
			"byteOffset":63400,
			"target":34962
		},
		{
			"buffer":0,
			"byteLength":3168,
			"byteOffset":68152,
			"target":34962
		},
		{
			"buffer":0,
			"byteLength":1224,
			"byteOffset":71320,
			"target":34963
		},
		{
			"buffer":0,
			"byteLength":384,
			"byteOffset":72544,
			"target":34962
		},
		{
			"buffer":0,
			"byteLength":384,
			"byteOffset":72928,
			"target":34962
		},
		{
			"buffer":0,
			"byteLength":256,
			"byteOffset":73312,
			"target":34962
		},
		{
			"buffer":0,
			"byteLength":156,
			"byteOffset":73568,
			"target":34963
		},
		{
			"buffer":0,
			"byteLength":288,
			"byteOffset":73724,
			"target":34962
		},
		{
			"buffer":0,
			"byteLength":288,
			"byteOffset":74012,
			"target":34962
		},
		{
			"buffer":0,
			"byteLength":192,
			"byteOffset":74300,
			"target":34962
		},
		{
			"buffer":0,
			"byteLength":120,
			"byteOffset":74492,
			"target":34963
		},
		{
			"buffer":0,
			"byteLength":780,
			"byteOffset":74612,
			"target":34962
		},
		{
			"buffer":0,
			"byteLength":780,
			"byteOffset":75392,
			"target":34962
		},
		{
			"buffer":0,
			"byteLength":520,
			"byteOffset":76172,
			"target":34962
		},
		{
			"buffer":0,
			"byteLength":312,
			"byteOffset":76692,
			"target":34963
		},
		{
			"buffer":0,
			"byteLength":96,
			"byteOffset":77004,
			"target":34962
		},
		{
			"buffer":0,
			"byteLength":96,
			"byteOffset":77100,
			"target":34962
		},
		{
			"buffer":0,
			"byteLength":64,
			"byteOffset":77196,
			"target":34962
		},
		{
			"buffer":0,
			"byteLength":24,
			"byteOffset":77260,
			"target":34963
		},
		{
			"buffer":0,
			"byteLength":96,
			"byteOffset":77284,
			"target":34962
		},
		{
			"buffer":0,
			"byteLength":96,
			"byteOffset":77380,
			"target":34962
		},
		{
			"buffer":0,
			"byteLength":64,
			"byteOffset":77476,
			"target":34962
		},
		{
			"buffer":0,
			"byteLength":24,
			"byteOffset":77540,
			"target":34963
		},
		{
			"buffer":0,
			"byteLength":1548,
			"byteOffset":77564,
			"target":34962
		},
		{
			"buffer":0,
			"byteLength":1548,
			"byteOffset":79112,
			"target":34962
		},
		{
			"buffer":0,
			"byteLength":1032,
			"byteOffset":80660,
			"target":34962
		},
		{
			"buffer":0,
			"byteLength":684,
			"byteOffset":81692,
			"target":34963
		},
		{
			"buffer":0,
			"byteLength":348,
			"byteOffset":82376,
			"target":34962
		},
		{
			"buffer":0,
			"byteLength":348,
			"byteOffset":82724,
			"target":34962
		},
		{
			"buffer":0,
			"byteLength":232,
			"byteOffset":83072,
			"target":34962
		},
		{
			"buffer":0,
			"byteLength":114,
			"byteOffset":83304,
			"target":34963
		},
		{
			"buffer":0,
			"byteLength":936,
			"byteOffset":83420,
			"target":34962
		},
		{
			"buffer":0,
			"byteLength":936,
			"byteOffset":84356,
			"target":34962
		},
		{
			"buffer":0,
			"byteLength":624,
			"byteOffset":85292,
			"target":34962
		},
		{
			"buffer":0,
			"byteLength":348,
			"byteOffset":85916,
			"target":34963
		},
		{
			"buffer":0,
			"byteLength":168,
			"byteOffset":86264,
			"target":34962
		},
		{
			"buffer":0,
			"byteLength":168,
			"byteOffset":86432,
			"target":34962
		},
		{
			"buffer":0,
			"byteLength":112,
			"byteOffset":86600,
			"target":34962
		},
		{
			"buffer":0,
			"byteLength":96,
			"byteOffset":86712,
			"target":34963
		},
		{
			"buffer":0,
			"byteLength":2016,
			"byteOffset":86808,
			"target":34962
		},
		{
			"buffer":0,
			"byteLength":2016,
			"byteOffset":88824,
			"target":34962
		},
		{
			"buffer":0,
			"byteLength":996,
			"byteOffset":90840,
			"target":34963
		},
		{
			"buffer":0,
			"byteLength":6060,
			"byteOffset":91836,
			"target":34962
		},
		{
			"buffer":0,
			"byteLength":6060,
			"byteOffset":97896,
			"target":34962
		},
		{
			"buffer":0,
			"byteLength":4040,
			"byteOffset":103956,
			"target":34962
		},
		{
			"buffer":0,
			"byteLength":2958,
			"byteOffset":107996,
			"target":34963
		}
	],
	"samplers":[
		{
			"magFilter":9729,
			"minFilter":9987
		}
	],
	"buffers":[
		{
			"byteLength":110956,
			"uri":"lang-bac-ho.bin"
		}
	]
}
